<mxfile host="65bd71144e">
    <diagram id="QrDfKVTAkVcKjVlRXJ2f" name="第 1 页">
        <mxGraphModel dx="732" dy="2099" grid="1" gridSize="10" guides="0" tooltips="1" connect="1" arrows="1" fold="1" page="0" pageScale="1" pageWidth="827" pageHeight="1169" math="0" shadow="0">
            <root>
                <mxCell id="0"/>
                <mxCell id="1" parent="0"/>
                <mxCell id="6" value="身份验证服务&lt;div&gt;&amp;lt;control&amp;gt;&lt;/div&gt;" style="shape=umlLifeline;perimeter=lifelinePerimeter;whiteSpace=wrap;html=1;container=1;dropTarget=0;collapsible=0;recursiveResize=0;outlineConnect=0;portConstraint=eastwest;newEdgeStyle={&quot;edgeStyle&quot;:&quot;elbowEdgeStyle&quot;,&quot;elbow&quot;:&quot;vertical&quot;,&quot;curved&quot;:0,&quot;rounded&quot;:0};" parent="1" vertex="1">
                    <mxGeometry x="440" y="-1280" width="100" height="1400" as="geometry"/>
                </mxCell>
                <mxCell id="15" value="用户信息库&lt;div&gt;&amp;lt;entry&amp;gt;&lt;/div&gt;" style="shape=umlLifeline;perimeter=lifelinePerimeter;whiteSpace=wrap;html=1;container=1;dropTarget=0;collapsible=0;recursiveResize=0;outlineConnect=0;portConstraint=eastwest;newEdgeStyle={&quot;edgeStyle&quot;:&quot;elbowEdgeStyle&quot;,&quot;elbow&quot;:&quot;vertical&quot;,&quot;curved&quot;:0,&quot;rounded&quot;:0};" parent="1" vertex="1">
                    <mxGeometry x="640" y="-1280" width="100" height="1400" as="geometry"/>
                </mxCell>
                <mxCell id="16" value="" style="html=1;points=[[0,0,0,0,5],[0,1,0,0,-5],[1,0,0,0,5],[1,1,0,0,-5]];perimeter=orthogonalPerimeter;outlineConnect=0;targetShapes=umlLifeline;portConstraint=eastwest;newEdgeStyle={&quot;curved&quot;:0,&quot;rounded&quot;:0};" parent="15" vertex="1">
                    <mxGeometry x="45" y="210" width="10" height="950" as="geometry"/>
                </mxCell>
                <mxCell id="17" value="登录界面&lt;div&gt;&amp;lt;boundary&amp;gt;&lt;/div&gt;" style="shape=umlLifeline;perimeter=lifelinePerimeter;whiteSpace=wrap;html=1;container=1;dropTarget=0;collapsible=0;recursiveResize=0;outlineConnect=0;portConstraint=eastwest;newEdgeStyle={&quot;edgeStyle&quot;:&quot;elbowEdgeStyle&quot;,&quot;elbow&quot;:&quot;vertical&quot;,&quot;curved&quot;:0,&quot;rounded&quot;:0};" parent="1" vertex="1">
                    <mxGeometry x="240" y="-1280" width="100" height="1400" as="geometry"/>
                </mxCell>
                <mxCell id="18" value="" style="html=1;points=[[0,0,0,0,5],[0,1,0,0,-5],[1,0,0,0,5],[1,1,0,0,-5]];perimeter=orthogonalPerimeter;outlineConnect=0;targetShapes=umlLifeline;portConstraint=eastwest;newEdgeStyle={&quot;curved&quot;:0,&quot;rounded&quot;:0};" parent="17" vertex="1">
                    <mxGeometry x="45" y="90" width="10" height="1200" as="geometry"/>
                </mxCell>
                <mxCell id="19" value="用户" style="shape=umlLifeline;perimeter=lifelinePerimeter;whiteSpace=wrap;html=1;container=1;dropTarget=0;collapsible=0;recursiveResize=0;outlineConnect=0;portConstraint=eastwest;newEdgeStyle={&quot;edgeStyle&quot;:&quot;elbowEdgeStyle&quot;,&quot;elbow&quot;:&quot;vertical&quot;,&quot;curved&quot;:0,&quot;rounded&quot;:0};" parent="1" vertex="1">
                    <mxGeometry x="40" y="-1280" width="100" height="1400" as="geometry"/>
                </mxCell>
                <mxCell id="20" value="" style="html=1;points=[[0,0,0,0,5],[0,1,0,0,-5],[1,0,0,0,5],[1,1,0,0,-5]];perimeter=orthogonalPerimeter;outlineConnect=0;targetShapes=umlLifeline;portConstraint=eastwest;newEdgeStyle={&quot;curved&quot;:0,&quot;rounded&quot;:0};" parent="19" vertex="1">
                    <mxGeometry x="45" y="90" width="10" height="1250" as="geometry"/>
                </mxCell>
                <mxCell id="22" value="访问" style="html=1;verticalAlign=bottom;labelBackgroundColor=none;endArrow=open;endFill=0;" parent="1" source="20" edge="1">
                    <mxGeometry x="-0.0501" width="160" relative="1" as="geometry">
                        <mxPoint x="100" y="-1160" as="sourcePoint"/>
                        <mxPoint x="280" y="-1160" as="targetPoint"/>
                        <mxPoint as="offset"/>
                    </mxGeometry>
                </mxCell>
                <mxCell id="24" value="登录模式选择" style="html=1;verticalAlign=bottom;labelBackgroundColor=none;endArrow=open;endFill=0;entryX=0.85;entryY=0.579;entryDx=0;entryDy=0;entryPerimeter=0;" parent="1" edge="1">
                    <mxGeometry width="160" relative="1" as="geometry">
                        <mxPoint x="285" y="-1120" as="sourcePoint"/>
                        <mxPoint x="93.5" y="-1118.4099999999999" as="targetPoint"/>
                    </mxGeometry>
                </mxCell>
                <mxCell id="26" value="opt" style="shape=umlFrame;whiteSpace=wrap;html=1;pointerEvents=0;recursiveResize=0;container=1;collapsible=0;width=70;height=30;" parent="1" vertex="1">
                    <mxGeometry y="-1110" width="760" height="550" as="geometry"/>
                </mxCell>
                <mxCell id="27" value="新用户" style="text;html=1;" parent="26" vertex="1">
                    <mxGeometry width="100" height="20" relative="1" as="geometry">
                        <mxPoint y="30" as="offset"/>
                    </mxGeometry>
                </mxCell>
                <mxCell id="n6yCuVXN6WmIahS-QWQl-28" value="新用户" style="html=1;verticalAlign=bottom;labelBackgroundColor=none;endArrow=open;endFill=0;" parent="26" edge="1">
                    <mxGeometry x="-0.0501" width="160" relative="1" as="geometry">
                        <mxPoint x="100" y="50" as="sourcePoint"/>
                        <mxPoint x="285" y="50" as="targetPoint"/>
                        <mxPoint as="offset"/>
                    </mxGeometry>
                </mxCell>
                <mxCell id="n6yCuVXN6WmIahS-QWQl-29" value="注册界面" style="html=1;verticalAlign=bottom;labelBackgroundColor=none;endArrow=open;endFill=0;" parent="26" edge="1">
                    <mxGeometry x="0.0256" width="160" relative="1" as="geometry">
                        <mxPoint x="285" y="90" as="sourcePoint"/>
                        <mxPoint x="90" y="90" as="targetPoint"/>
                        <mxPoint as="offset"/>
                    </mxGeometry>
                </mxCell>
                <mxCell id="n6yCuVXN6WmIahS-QWQl-30" value="注册信息" style="html=1;verticalAlign=bottom;labelBackgroundColor=none;endArrow=open;endFill=0;" parent="26" edge="1">
                    <mxGeometry x="-0.0501" width="160" relative="1" as="geometry">
                        <mxPoint x="100" y="130" as="sourcePoint"/>
                        <mxPoint x="285" y="130" as="targetPoint"/>
                        <mxPoint as="offset"/>
                    </mxGeometry>
                </mxCell>
                <mxCell id="7" value="" style="html=1;points=[[0,0,0,0,5],[0,1,0,0,-5],[1,0,0,0,5],[1,1,0,0,-5]];perimeter=orthogonalPerimeter;outlineConnect=0;targetShapes=umlLifeline;portConstraint=eastwest;newEdgeStyle={&quot;curved&quot;:0,&quot;rounded&quot;:0};" parent="26" vertex="1">
                    <mxGeometry x="485" y="20" width="10" height="970" as="geometry"/>
                </mxCell>
                <mxCell id="n6yCuVXN6WmIahS-QWQl-32" value="注册请求" style="html=1;verticalAlign=bottom;labelBackgroundColor=none;endArrow=open;endFill=0;" parent="26" edge="1">
                    <mxGeometry x="-0.0501" width="160" relative="1" as="geometry">
                        <mxPoint x="300" y="170" as="sourcePoint"/>
                        <mxPoint x="485" y="170" as="targetPoint"/>
                        <mxPoint as="offset"/>
                    </mxGeometry>
                </mxCell>
                <mxCell id="n6yCuVXN6WmIahS-QWQl-33" value="注册信息检查" style="html=1;verticalAlign=bottom;labelBackgroundColor=none;endArrow=open;endFill=0;" parent="26" edge="1">
                    <mxGeometry x="-0.0501" width="160" relative="1" as="geometry">
                        <mxPoint x="500" y="210" as="sourcePoint"/>
                        <mxPoint x="685" y="210" as="targetPoint"/>
                        <mxPoint as="offset"/>
                    </mxGeometry>
                </mxCell>
                <mxCell id="n6yCuVXN6WmIahS-QWQl-37" value="alt" style="shape=umlFrame;whiteSpace=wrap;html=1;pointerEvents=0;recursiveResize=0;container=1;collapsible=0;width=60;height=30;" parent="26" vertex="1">
                    <mxGeometry x="10" y="220" width="730" height="310" as="geometry"/>
                </mxCell>
                <mxCell id="n6yCuVXN6WmIahS-QWQl-38" value="信息不合法" style="text;html=1;" parent="n6yCuVXN6WmIahS-QWQl-37" vertex="1">
                    <mxGeometry width="100" height="20" relative="1" as="geometry">
                        <mxPoint y="30" as="offset"/>
                    </mxGeometry>
                </mxCell>
                <mxCell id="n6yCuVXN6WmIahS-QWQl-39" value="" style="line;strokeWidth=1;dashed=1;labelPosition=center;verticalLabelPosition=bottom;align=left;verticalAlign=top;spacingLeft=20;spacingTop=15;html=1;whiteSpace=wrap;" parent="n6yCuVXN6WmIahS-QWQl-37" vertex="1">
                    <mxGeometry y="150" width="730" height="10" as="geometry"/>
                </mxCell>
                <mxCell id="n6yCuVXN6WmIahS-QWQl-35" value="信息不合法" style="text;html=1;align=center;verticalAlign=middle;resizable=0;points=[];autosize=1;strokeColor=none;fillColor=none;" parent="n6yCuVXN6WmIahS-QWQl-37" vertex="1">
                    <mxGeometry x="540" y="20" width="80" height="30" as="geometry"/>
                </mxCell>
                <mxCell id="n6yCuVXN6WmIahS-QWQl-34" value="" style="html=1;verticalAlign=bottom;labelBackgroundColor=none;endArrow=block;endFill=1;dashed=1;" parent="n6yCuVXN6WmIahS-QWQl-37" edge="1">
                    <mxGeometry width="160" relative="1" as="geometry">
                        <mxPoint x="670" y="40" as="sourcePoint"/>
                        <mxPoint x="490" y="40" as="targetPoint"/>
                    </mxGeometry>
                </mxCell>
                <mxCell id="n6yCuVXN6WmIahS-QWQl-40" value="" style="html=1;verticalAlign=bottom;labelBackgroundColor=none;endArrow=block;endFill=1;dashed=1;" parent="n6yCuVXN6WmIahS-QWQl-37" edge="1">
                    <mxGeometry width="160" relative="1" as="geometry">
                        <mxPoint x="470" y="80" as="sourcePoint"/>
                        <mxPoint x="290" y="80" as="targetPoint"/>
                    </mxGeometry>
                </mxCell>
                <mxCell id="n6yCuVXN6WmIahS-QWQl-41" value="注册失败" style="text;html=1;align=center;verticalAlign=middle;resizable=0;points=[];autosize=1;strokeColor=none;fillColor=none;" parent="n6yCuVXN6WmIahS-QWQl-37" vertex="1">
                    <mxGeometry x="340" y="60" width="70" height="30" as="geometry"/>
                </mxCell>
                <mxCell id="n6yCuVXN6WmIahS-QWQl-42" value="注册界面" style="html=1;verticalAlign=bottom;labelBackgroundColor=none;endArrow=open;endFill=0;" parent="n6yCuVXN6WmIahS-QWQl-37" edge="1">
                    <mxGeometry x="0.0256" width="160" relative="1" as="geometry">
                        <mxPoint x="275" y="120" as="sourcePoint"/>
                        <mxPoint x="80" y="120" as="targetPoint"/>
                        <mxPoint as="offset"/>
                    </mxGeometry>
                </mxCell>
                <mxCell id="n6yCuVXN6WmIahS-QWQl-44" value="else" style="whiteSpace=wrap;html=1;" parent="n6yCuVXN6WmIahS-QWQl-37" vertex="1">
                    <mxGeometry y="160" width="70" height="30" as="geometry"/>
                </mxCell>
                <mxCell id="n6yCuVXN6WmIahS-QWQl-52" value="" style="html=1;verticalAlign=bottom;labelBackgroundColor=none;endArrow=block;endFill=1;dashed=1;" parent="n6yCuVXN6WmIahS-QWQl-37" edge="1">
                    <mxGeometry width="160" relative="1" as="geometry">
                        <mxPoint x="670" y="210" as="sourcePoint"/>
                        <mxPoint x="490" y="210" as="targetPoint"/>
                    </mxGeometry>
                </mxCell>
                <mxCell id="n6yCuVXN6WmIahS-QWQl-53" value="&lt;span style=&quot;color: rgb(0, 0, 0); font-family: Helvetica; font-size: 12px; font-style: normal; font-variant-ligatures: normal; font-variant-caps: normal; font-weight: 400; letter-spacing: normal; orphans: 2; text-align: center; text-indent: 0px; text-transform: none; widows: 2; word-spacing: 0px; -webkit-text-stroke-width: 0px; white-space: nowrap; background-color: rgb(255, 255, 255); text-decoration-thickness: initial; text-decoration-style: initial; text-decoration-color: initial; float: none; display: inline !important;&quot;&gt;信息合法&amp;amp;已存储&lt;/span&gt;" style="text;whiteSpace=wrap;html=1;" parent="n6yCuVXN6WmIahS-QWQl-37" vertex="1">
                    <mxGeometry x="540" y="190" width="90" height="40" as="geometry"/>
                </mxCell>
                <mxCell id="n6yCuVXN6WmIahS-QWQl-54" value="" style="html=1;verticalAlign=bottom;labelBackgroundColor=none;endArrow=block;endFill=1;dashed=1;" parent="n6yCuVXN6WmIahS-QWQl-37" edge="1">
                    <mxGeometry width="160" relative="1" as="geometry">
                        <mxPoint x="470" y="250" as="sourcePoint"/>
                        <mxPoint x="290" y="250" as="targetPoint"/>
                    </mxGeometry>
                </mxCell>
                <mxCell id="n6yCuVXN6WmIahS-QWQl-55" value="&lt;span style=&quot;color: rgb(0, 0, 0); font-family: Helvetica; font-size: 12px; font-style: normal; font-variant-ligatures: normal; font-variant-caps: normal; font-weight: 400; letter-spacing: normal; orphans: 2; text-align: center; text-indent: 0px; text-transform: none; widows: 2; word-spacing: 0px; -webkit-text-stroke-width: 0px; white-space: nowrap; background-color: rgb(255, 255, 255); text-decoration-thickness: initial; text-decoration-style: initial; text-decoration-color: initial; float: none; display: inline !important;&quot;&gt;注册成功&lt;/span&gt;" style="text;whiteSpace=wrap;html=1;" parent="n6yCuVXN6WmIahS-QWQl-37" vertex="1">
                    <mxGeometry x="350" y="230" width="80" height="40" as="geometry"/>
                </mxCell>
                <mxCell id="n6yCuVXN6WmIahS-QWQl-56" value="登录界面" style="html=1;verticalAlign=bottom;labelBackgroundColor=none;endArrow=open;endFill=0;" parent="n6yCuVXN6WmIahS-QWQl-37" edge="1">
                    <mxGeometry x="0.0256" width="160" relative="1" as="geometry">
                        <mxPoint x="275" y="290" as="sourcePoint"/>
                        <mxPoint x="80" y="290" as="targetPoint"/>
                        <mxPoint as="offset"/>
                    </mxGeometry>
                </mxCell>
                <mxCell id="n6yCuVXN6WmIahS-QWQl-45" value="" style="shape=umlActor;verticalLabelPosition=bottom;verticalAlign=top;html=1;" parent="1" vertex="1">
                    <mxGeometry x="70" y="-1340" width="30" height="60" as="geometry"/>
                </mxCell>
                <mxCell id="n6yCuVXN6WmIahS-QWQl-57" value="信息合法" style="text;html=1;align=center;verticalAlign=middle;resizable=0;points=[];autosize=1;strokeColor=none;fillColor=none;" parent="1" vertex="1">
                    <mxGeometry x="5" y="-702" width="70" height="30" as="geometry"/>
                </mxCell>
                <mxCell id="n6yCuVXN6WmIahS-QWQl-60" value="登录信息&amp;amp;身份类型" style="html=1;verticalAlign=bottom;labelBackgroundColor=none;endArrow=open;endFill=0;" parent="1" edge="1">
                    <mxGeometry x="-0.0501" width="160" relative="1" as="geometry">
                        <mxPoint x="100" y="-520" as="sourcePoint"/>
                        <mxPoint x="285" y="-520" as="targetPoint"/>
                        <mxPoint as="offset"/>
                    </mxGeometry>
                </mxCell>
                <mxCell id="n6yCuVXN6WmIahS-QWQl-61" value="登录请求" style="html=1;verticalAlign=bottom;labelBackgroundColor=none;endArrow=open;endFill=0;" parent="1" edge="1">
                    <mxGeometry x="-0.0501" width="160" relative="1" as="geometry">
                        <mxPoint x="300" y="-480" as="sourcePoint"/>
                        <mxPoint x="485" y="-480" as="targetPoint"/>
                        <mxPoint as="offset"/>
                    </mxGeometry>
                </mxCell>
                <mxCell id="n6yCuVXN6WmIahS-QWQl-62" value="登录信息检查" style="html=1;verticalAlign=bottom;labelBackgroundColor=none;endArrow=open;endFill=0;" parent="1" edge="1">
                    <mxGeometry x="-0.0501" width="160" relative="1" as="geometry">
                        <mxPoint x="500" y="-440" as="sourcePoint"/>
                        <mxPoint x="685" y="-440" as="targetPoint"/>
                        <mxPoint as="offset"/>
                    </mxGeometry>
                </mxCell>
                <mxCell id="n6yCuVXN6WmIahS-QWQl-63" value="alt" style="shape=umlFrame;whiteSpace=wrap;html=1;pointerEvents=0;recursiveResize=0;container=1;collapsible=0;width=60;height=30;" parent="1" vertex="1">
                    <mxGeometry x="10" y="-430" width="730" height="460" as="geometry"/>
                </mxCell>
                <mxCell id="n6yCuVXN6WmIahS-QWQl-64" value="信息不合法" style="text;html=1;" parent="n6yCuVXN6WmIahS-QWQl-63" vertex="1">
                    <mxGeometry width="100" height="20" relative="1" as="geometry">
                        <mxPoint y="30" as="offset"/>
                    </mxGeometry>
                </mxCell>
                <mxCell id="n6yCuVXN6WmIahS-QWQl-65" value="" style="line;strokeWidth=1;dashed=1;labelPosition=center;verticalLabelPosition=bottom;align=left;verticalAlign=top;spacingLeft=20;spacingTop=15;html=1;whiteSpace=wrap;" parent="n6yCuVXN6WmIahS-QWQl-63" vertex="1">
                    <mxGeometry y="150" width="730" height="10" as="geometry"/>
                </mxCell>
                <mxCell id="n6yCuVXN6WmIahS-QWQl-66" value="登录信息不合法" style="text;html=1;align=center;verticalAlign=middle;resizable=0;points=[];autosize=1;strokeColor=none;fillColor=none;" parent="n6yCuVXN6WmIahS-QWQl-63" vertex="1">
                    <mxGeometry x="525" y="20" width="110" height="30" as="geometry"/>
                </mxCell>
                <mxCell id="n6yCuVXN6WmIahS-QWQl-67" value="" style="html=1;verticalAlign=bottom;labelBackgroundColor=none;endArrow=block;endFill=1;dashed=1;" parent="n6yCuVXN6WmIahS-QWQl-63" edge="1">
                    <mxGeometry width="160" relative="1" as="geometry">
                        <mxPoint x="670" y="40" as="sourcePoint"/>
                        <mxPoint x="490" y="40" as="targetPoint"/>
                    </mxGeometry>
                </mxCell>
                <mxCell id="n6yCuVXN6WmIahS-QWQl-68" value="" style="html=1;verticalAlign=bottom;labelBackgroundColor=none;endArrow=block;endFill=1;dashed=1;" parent="n6yCuVXN6WmIahS-QWQl-63" edge="1">
                    <mxGeometry width="160" relative="1" as="geometry">
                        <mxPoint x="470" y="80" as="sourcePoint"/>
                        <mxPoint x="290" y="80" as="targetPoint"/>
                    </mxGeometry>
                </mxCell>
                <mxCell id="n6yCuVXN6WmIahS-QWQl-69" value="登录失败" style="text;html=1;align=center;verticalAlign=middle;resizable=0;points=[];autosize=1;strokeColor=none;fillColor=none;" parent="n6yCuVXN6WmIahS-QWQl-63" vertex="1">
                    <mxGeometry x="340" y="60" width="70" height="30" as="geometry"/>
                </mxCell>
                <mxCell id="n6yCuVXN6WmIahS-QWQl-70" value="登录界面" style="html=1;verticalAlign=bottom;labelBackgroundColor=none;endArrow=open;endFill=0;" parent="n6yCuVXN6WmIahS-QWQl-63" edge="1">
                    <mxGeometry x="0.0256" width="160" relative="1" as="geometry">
                        <mxPoint x="275" y="120" as="sourcePoint"/>
                        <mxPoint x="80" y="120" as="targetPoint"/>
                        <mxPoint as="offset"/>
                    </mxGeometry>
                </mxCell>
                <mxCell id="n6yCuVXN6WmIahS-QWQl-71" value="else" style="whiteSpace=wrap;html=1;" parent="n6yCuVXN6WmIahS-QWQl-63" vertex="1">
                    <mxGeometry y="160" width="70" height="30" as="geometry"/>
                </mxCell>
                <mxCell id="n6yCuVXN6WmIahS-QWQl-72" value="" style="html=1;verticalAlign=bottom;labelBackgroundColor=none;endArrow=block;endFill=1;dashed=1;" parent="n6yCuVXN6WmIahS-QWQl-63" edge="1">
                    <mxGeometry width="160" relative="1" as="geometry">
                        <mxPoint x="670" y="210" as="sourcePoint"/>
                        <mxPoint x="490" y="210" as="targetPoint"/>
                    </mxGeometry>
                </mxCell>
                <mxCell id="n6yCuVXN6WmIahS-QWQl-73" value="&lt;div style=&quot;text-align: center;&quot;&gt;&lt;span style=&quot;background-color: transparent; text-wrap-mode: nowrap;&quot;&gt;登录信息合法&lt;/span&gt;&lt;/div&gt;" style="text;whiteSpace=wrap;html=1;" parent="n6yCuVXN6WmIahS-QWQl-63" vertex="1">
                    <mxGeometry x="550" y="190" width="90" height="40" as="geometry"/>
                </mxCell>
                <mxCell id="n6yCuVXN6WmIahS-QWQl-74" value="" style="html=1;verticalAlign=bottom;labelBackgroundColor=none;endArrow=block;endFill=1;dashed=1;" parent="n6yCuVXN6WmIahS-QWQl-63" edge="1">
                    <mxGeometry width="160" relative="1" as="geometry">
                        <mxPoint x="470" y="250" as="sourcePoint"/>
                        <mxPoint x="290" y="250" as="targetPoint"/>
                    </mxGeometry>
                </mxCell>
                <mxCell id="n6yCuVXN6WmIahS-QWQl-75" value="&lt;span style=&quot;color: rgb(0, 0, 0); font-family: Helvetica; font-size: 12px; font-style: normal; font-variant-ligatures: normal; font-variant-caps: normal; font-weight: 400; letter-spacing: normal; orphans: 2; text-align: center; text-indent: 0px; text-transform: none; widows: 2; word-spacing: 0px; -webkit-text-stroke-width: 0px; white-space: nowrap; background-color: rgb(255, 255, 255); text-decoration-thickness: initial; text-decoration-style: initial; text-decoration-color: initial; float: none; display: inline !important;&quot;&gt;登录成功&lt;/span&gt;" style="text;whiteSpace=wrap;html=1;" parent="n6yCuVXN6WmIahS-QWQl-63" vertex="1">
                    <mxGeometry x="350" y="230" width="80" height="40" as="geometry"/>
                </mxCell>
                <mxCell id="n6yCuVXN6WmIahS-QWQl-79" value="" style="html=1;verticalAlign=bottom;labelBackgroundColor=none;endArrow=block;endFill=1;dashed=1;" parent="n6yCuVXN6WmIahS-QWQl-63" edge="1">
                    <mxGeometry width="160" relative="1" as="geometry">
                        <mxPoint x="270" y="350" as="sourcePoint"/>
                        <mxPoint x="90" y="350" as="targetPoint"/>
                    </mxGeometry>
                </mxCell>
                <mxCell id="n6yCuVXN6WmIahS-QWQl-80" value="跳转老师界面" style="text;html=1;align=center;verticalAlign=middle;resizable=0;points=[];autosize=1;strokeColor=none;fillColor=none;" parent="n6yCuVXN6WmIahS-QWQl-63" vertex="1">
                    <mxGeometry x="130" y="330" width="100" height="30" as="geometry"/>
                </mxCell>
                <mxCell id="n6yCuVXN6WmIahS-QWQl-84" value="" style="html=1;verticalAlign=bottom;labelBackgroundColor=none;endArrow=block;endFill=1;dashed=1;" parent="n6yCuVXN6WmIahS-QWQl-63" edge="1">
                    <mxGeometry width="160" relative="1" as="geometry">
                        <mxPoint x="270" y="410" as="sourcePoint"/>
                        <mxPoint x="90" y="410" as="targetPoint"/>
                    </mxGeometry>
                </mxCell>
                <mxCell id="n6yCuVXN6WmIahS-QWQl-85" value="跳转学生界面" style="text;html=1;align=center;verticalAlign=middle;resizable=0;points=[];autosize=1;strokeColor=none;fillColor=none;" parent="n6yCuVXN6WmIahS-QWQl-63" vertex="1">
                    <mxGeometry x="120" y="390" width="100" height="30" as="geometry"/>
                </mxCell>
                <mxCell id="n6yCuVXN6WmIahS-QWQl-87" value="alt" style="shape=umlFrame;whiteSpace=wrap;html=1;pointerEvents=0;recursiveResize=0;container=1;collapsible=0;width=50;height=30;" parent="1" vertex="1">
                    <mxGeometry x="20" y="-140" width="290" height="130" as="geometry"/>
                </mxCell>
                <mxCell id="n6yCuVXN6WmIahS-QWQl-88" value="老师身份" style="text;html=1;" parent="n6yCuVXN6WmIahS-QWQl-87" vertex="1">
                    <mxGeometry width="100" height="20" relative="1" as="geometry">
                        <mxPoint y="30" as="offset"/>
                    </mxGeometry>
                </mxCell>
                <mxCell id="n6yCuVXN6WmIahS-QWQl-89" value="" style="line;strokeWidth=1;dashed=1;labelPosition=center;verticalLabelPosition=bottom;align=left;verticalAlign=top;spacingLeft=20;spacingTop=15;html=1;whiteSpace=wrap;" parent="n6yCuVXN6WmIahS-QWQl-87" vertex="1">
                    <mxGeometry y="70" width="290" height="10" as="geometry"/>
                </mxCell>
                <mxCell id="n6yCuVXN6WmIahS-QWQl-90" value="else" style="whiteSpace=wrap;html=1;" parent="n6yCuVXN6WmIahS-QWQl-87" vertex="1">
                    <mxGeometry y="80" width="60" height="20" as="geometry"/>
                </mxCell>
                <mxCell id="n6yCuVXN6WmIahS-QWQl-91" value="学生身份" style="text;html=1;align=center;verticalAlign=middle;resizable=0;points=[];autosize=1;strokeColor=none;fillColor=none;" parent="n6yCuVXN6WmIahS-QWQl-87" vertex="1">
                    <mxGeometry x="-10" y="100" width="70" height="30" as="geometry"/>
                </mxCell>
            </root>
        </mxGraphModel>
    </diagram>
</mxfile>